<svg width="43" height="55" viewBox="0 0 43 55" fill="none" xmlns="http://www.w3.org/2000/svg">
<path d="M-3.05176e-05 30.6319H18.781L6.15298 18.0039L-3.05176e-05 30.6319Z" fill="#030947"/>
<path d="M22.632 0.00698853V29.199L34.46 17.369L37.229 14.6L22.629 0" fill="#006AB5"/>
<path d="M20.6 0.00610352L6 14.6061L8.76898 17.3751L20.6 29.1981V0.00610352Z" fill="#006AB5"/>
<path d="M23.699 30.6319H42.48L36.326 18.0049L23.699 30.6319Z" fill="#030947"/>
<path d="M23.698 32.668L37.611 46.582L42.364 32.668H23.698Z" fill="#030947"/>
<path d="M22.258 54.0638L36.087 47.9368L22.258 34.1028V54.0638Z" fill="#030947"/>
<path d="M6.39502 47.9348L20.221 54.0608V34.1028L6.39502 47.9348Z" fill="#030947"/>
<path d="M0.115982 32.668L4.868 46.582L18.782 32.668H0.115982Z" fill="#030947"/>
</svg>
