<svg width="42" height="42" viewBox="0 0 42 42" fill="none" xmlns="http://www.w3.org/2000/svg">
<path d="M6.16548 6.16548C-2.05516 14.3861 -2.05516 27.6886 6.16548 35.8345C14.3862 44.0552 27.6886 44.0552 35.8345 35.8345C44.0552 27.6139 44.0552 14.3113 35.8345 6.16548C27.6886 -2.05516 14.3862 -2.05516 6.16548 6.16548Z" fill="#00AFAA"/>
<path d="M25.4468 9.44C25.2225 9.11715 24.849 8.95573 24.4753 9.03644L10.2012 14.3634C9.9023 14.4441 9.75282 14.6863 9.6781 15.0091C9.60336 15.332 9.67809 15.6548 9.90228 15.8969L14.6105 20.9817C14.76 21.1432 14.9841 21.2239 15.2083 21.2239C15.4326 21.2239 15.6568 21.1432 15.8062 20.9817L25.4468 10.57C25.5962 10.2471 25.671 9.76284 25.4468 9.44Z" fill="white"/>
<path d="M33.2185 17.8382C32.9944 17.4347 32.5459 17.2732 32.1722 17.4347L10.2008 25.6671C9.90183 25.7479 9.67763 25.9901 9.6029 26.3129C9.52817 26.6358 9.6029 26.9586 9.82709 27.2007L17.0015 34.949C17.1509 35.1105 17.3752 35.1912 17.5993 35.1912C17.8235 35.1912 18.0478 35.1105 18.1972 34.949L32.9944 18.9681C33.3681 18.7259 33.4427 18.2418 33.2185 17.8382Z" fill="white"/>
</svg>
